/* XPM */
static char * con_xpm[] = {
"24 24 5 1",
" 	c None",
".	c #000000",
"+	c #A6A6A6",
"@	c #FFFFFF",
"#	c #7E7E7E",
"........................",
"........................",
"........................",
"........................",
"........................",
".........+++@@@.........",
".......++...@@@@@.......",
"......++....@@@@@@......",
"......+.....@@@@@@......",
".....+......@@@@@@@.....",
".....+......@@@@@@@.....",
".....+......@@@@@@@.....",
".....+......@@@@@@@.....",
".....#......@@@@@@@.....",
"............@@@@@@@.....",
"............@@@@@@......",
"............@@@@@@......",
"............@@@@@.......",
"............@@@.........",
"........................",
"........................",
"........................",
"........................",
"........................"};
