/* XPM */
static const char * hue_xpm[] = {
"24 24 8 1",
" 	c None",
".	c #000000",
"+	c #00FFFF",
"@	c #00FF00",
"#	c #FFFF00",
"$	c #FF00FF",
"%	c #0000FF",
"&	c #FF0000",
"                        ",
"                        ",
"                        ",
"                        ",
"                  ....  ",
"               ...+@#.  ",
"            ...+++@@@.  ",
"         ...$%+%+@+@#.  ",
"      ...$$$%%%+++@@@.  ",
"  ....#&$&$%$%+%+@+@#.  ",
"  .###&&&$$$%%%+++@@@.  ",
"  .@#&#&$&$%$%+%+@+@#.  ",
"  .###&&&$$$%%%+++@@@.  ",
"  .@#&#&$&$%$%+%+@+@#.  ",
"  .###&&&$$$%%%+++@@@.  ",
"  .@#&#&$&$%$%+%+@+@#.  ",
"  .###&&&$$$%%%+++@@@.  ",
"  .@#&#&$&$%$%+%+@+@#.  ",
"  .###&&&$$$%%%+++@@@.  ",
"  ....................  ",
"                        ",
"                        ",
"                        ",
"                        "};
