/* XPM */
static char * sat_xpm[] = {
"24 24 8 1",
" 	c None",
".	c #000000",
"+	c #FF0000",
"@	c #010001",
"#	c #FFD3D3",
"$	c #00FF00",
"%	c #D3FFD3",
"&	c #0000FF",
"........................",
"..........++++..........",
"........++@@@@++........",
".......+@@##++@@+.......",
".......@##++++++@.......",
"......+@#+++++++@.......",
"......@#+++++++++@......",
"......@#+++++++++@......",
"......@++++++++++@......",
"......@++++++++++@......",
".....@@$$++++++++@@.....",
"...@@%%$$$$+++++&&&@@...",
"..@%%$$$$$$$++&&&&&&&@..",
"..@%$$$$$$$$&&&&&&&&&@..",
".@%$$$$$$$$&&&&&&&&&&&@.",
".@%$$$$$$$$&&&&&&&&&&&@.",
".@$$$$$$$$$&&&&&&&&&&&@.",
".@$$$$$$$$$&&&&&&&&&&&@.",
"..@$$$$$$$$$&&&&&&&&&@..",
"..@$$$$$$$$@@&&&&&&&&@..",
"...@@$$$$@@..@@&&&&@@...",
".....@.@@......@@@@.....",
"........................",
"........................"};
